# xmcd
#
# Track frame offsets: 
#        150
#        13053
#        28090
#
# Disc length: 572 seconds
#
# Revision: 2
# Processed by: cddbd v1.5.2PL0 Copyright (c) Steve Scherf et al.
# Submitted via: ExactAudioCopy v0.90b4
#
DISCID=1c023a03
DTITLE=Dinah Washington - Mad About The Boy (Single)
DYEAR=1992
DGENRE=Vocal
TTITLE0=Mad About The Boy
TTITLE1=Stormy Weather
TTITLE2=Tell Me Why
EXTD=
EXTT0=
EXTT1=
EXTT2=
PLAYORDER=
